<svg width="18" height="18" viewBox="0 0 18 18" fill="none" xmlns="http://www.w3.org/2000/svg">
<path d="M17.1818 8.18182H9.81818V0.818182C9.81818 0.601187 9.73198 0.393079 9.57854 0.23964C9.4251 0.0862012 9.217 0 9 0C8.783 0 8.5749 0.0862012 8.42146 0.23964C8.26802 0.393079 8.18182 0.601187 8.18182 0.818182V8.18182H0.818182C0.601187 8.18182 0.393079 8.26802 0.23964 8.42146C0.0862012 8.5749 0 8.783 0 9C0 9.217 0.0862012 9.4251 0.23964 9.57854C0.393079 9.73198 0.601187 9.81818 0.818182 9.81818H8.18182V17.1818C8.18182 17.3988 8.26802 17.6069 8.42146 17.7604C8.5749 17.9138 8.783 18 9 18C9.217 18 9.4251 17.9138 9.57854 17.7604C9.73198 17.6069 9.81818 17.3988 9.81818 17.1818V9.81818H17.1818C17.3988 9.81818 17.6069 9.73198 17.7604 9.57854C17.9138 9.4251 18 9.217 18 9C18 8.783 17.9138 8.5749 17.7604 8.42146C17.6069 8.26802 17.3988 8.18182 17.1818 8.18182Z" fill="#F4F6FA"/>
</svg>
