<svg width="20" height="20" viewBox="0 0 20 20" fill="none" xmlns="http://www.w3.org/2000/svg">
<path d="M13.75 7.19159C13.4083 7.19159 13.125 6.90826 13.125 6.56659V5.41659C13.125 4.54159 12.75 3.69159 12.1 3.09992C11.4417 2.49992 10.5917 2.22492 9.69167 2.30826C8.19167 2.44992 6.875 3.98326 6.875 5.58326V6.39159C6.875 6.73326 6.59167 7.01659 6.25 7.01659C5.90833 7.01659 5.625 6.73326 5.625 6.39159V5.57492C5.625 3.33326 7.43333 1.26659 9.575 1.05826C10.825 0.94159 12.025 1.33326 12.9417 2.17492C13.85 2.99992 14.375 4.18326 14.375 5.41659V6.56659C14.375 6.90826 14.0917 7.19159 13.75 7.19159Z" fill="#181A37"/>
<path d="M12.5001 18.9584H7.50009C3.65009 18.9584 2.93343 17.1667 2.75009 15.4251L2.12509 10.4334C2.03343 9.53342 2.00009 8.24175 2.87509 7.27508C3.62509 6.44175 4.86676 6.04175 6.66676 6.04175H13.3334C15.1418 6.04175 16.3834 6.45008 17.1251 7.27508C17.9918 8.24175 17.9668 9.53342 17.8751 10.4167L17.2501 15.4251C17.0668 17.1667 16.3501 18.9584 12.5001 18.9584ZM6.66676 7.29175C5.25843 7.29175 4.29176 7.56675 3.80009 8.11675C3.39176 8.56675 3.25843 9.25842 3.36676 10.2917L3.99176 15.2834C4.13343 16.6167 4.50009 17.7168 7.50009 17.7168H12.5001C15.5001 17.7168 15.8668 16.6251 16.0084 15.3001L16.6334 10.2917C16.7418 9.27508 16.6084 8.58342 16.2001 8.12508C15.7084 7.56675 14.7418 7.29175 13.3334 7.29175H6.66676Z" fill="#181A37"/>
<path d="M12.85 10.9584C12.3833 10.9584 12.0083 10.5834 12.0083 10.1251C12.0083 9.66675 12.3833 9.29175 12.8416 9.29175C13.3 9.29175 13.675 9.66675 13.675 10.1251C13.675 10.5834 13.3083 10.9584 12.85 10.9584Z" fill="#181A37"/>
<path d="M7.01672 10.9584C6.55005 10.9584 6.17505 10.5834 6.17505 10.1251C6.17505 9.66675 6.55005 9.29175 7.00838 9.29175C7.46672 9.29175 7.84172 9.66675 7.84172 10.1251C7.84172 10.5834 7.47505 10.9584 7.01672 10.9584Z" fill="#181A37"/>
</svg>
